<svg height="512pt" viewBox="-66 0 512 512.001" width="512pt" xmlns="http://www.w3.org/2000/svg"><path d="m191.164062.00390625-.800781-.00390625c-104.964843 0-190.363281 85.40625-190.363281 190.386719 0 57.554687 29.421875 102.445312 62.195312 147.148437l127.917969 174.464844 128.46875-174.460938c32.777344-44.703124 62.195313-89.59375 62.195313-147.148437 0-104.722656-84.984375-189.972656-189.613282-190.38671875zm103.25 319.81640575s-99.386718 135.914063-103.894531 142.050782l-104.15625-142.054688c-30.855469-42.082031-56.394531-80.871094-56.394531-129.429687 0-88.207031 71.546875-160.015625 159.652344-160.417969h.769531c88.453125 0 160.417969 71.964844 160.417969 160.421875 0 48.5625-25.539063 87.347656-56.394532 129.429687zm0 0"/><path d="m190.390625 60.546875c-71.597656 0-129.84375 58.246094-129.84375 129.839844s58.246094 129.839843 129.84375 129.839843c71.59375 0 129.839844-58.246093 129.839844-129.839843s-58.246094-129.839844-129.839844-129.839844zm0 229.714844c-55.070313 0-99.875-44.804688-99.875-99.875 0-55.070313 44.804687-99.871094 99.875-99.871094 55.066406 0 99.871094 44.804687 99.871094 99.871094 0 55.070312-44.804688 99.875-99.871094 99.875zm0 0"/><path d="m190.390625 177.191406c-19.4375 0-37.175781 9.882813-47.445313 26.441406l25.464844 15.796876c4.765625-7.683594 12.980469-12.269532 21.980469-12.269532 8.996094 0 17.210937 4.585938 21.976563 12.269532l25.464843-15.796876c-10.269531-16.558593-28.003906-26.441406-47.441406-26.441406zm0 0"/><path d="m190.390625 129.195312c-35.246094 0-67.410156 17.925782-86.035156 47.957032l25.46875 15.792968c13.121093-21.152343 35.761719-33.78125 60.566406-33.78125 24.800781 0 47.441406 12.628907 60.566406 33.785157l25.464844-15.796875c-18.625-30.03125-50.789063-47.957032-86.03125-47.957032zm0 0"/><path d="m208.148438 240.628906c0 9.808594-7.949219 17.761719-17.757813 17.761719-9.8125 0-17.761719-7.953125-17.761719-17.761719s7.949219-17.761718 17.761719-17.761718c9.808594 0 17.757813 7.953124 17.757813 17.761718zm0 0"/></svg>